<?xml version="1.0" standalone="no"?>
<!DOCTYPE svg PUBLIC "-//W3C//DTD SVG 20010904//EN"
 "http://www.w3.org/TR/2001/REC-SVG-20010904/DTD/svg10.dtd">
<svg version="1.0" xmlns="http://www.w3.org/2000/svg"
 width="512.000000pt" height="512.000000pt" viewBox="0 0 512.000000 512.000000"
 preserveAspectRatio="xMidYMid meet">

<g transform="translate(0.000000,512.000000) scale(0.100000,-0.100000)"
fill="#000000" stroke="none">
<path d="M0 2560 l0 -2560 2560 0 2560 0 0 2560 0 2560 -2560 0 -2560 0 0
-2560z m1570 970 l0 -130 -97 0 c-76 0 -100 -4 -115 -17 -17 -15 -18 -54 -18
-831 0 -745 1 -817 17 -834 13 -15 32 -18 115 -18 l98 0 0 -130 0 -130 -170 0
c-186 0 -219 7 -274 58 -16 15 -37 45 -47 67 -18 38 -19 86 -19 983 0 1031 -3
981 58 1046 54 57 89 66 280 66 l172 0 0 -130z m2368 115 c47 -20 78 -50 105
-100 l22 -40 0 -955 0 -955 -22 -40 c-54 -100 -94 -115 -318 -115 l-175 0 0
130 0 130 100 0 c157 0 140 -103 140 850 0 953 17 850 -140 850 l-100 0 0 130
0 130 175 0 c136 0 184 -4 213 -15z m-858 -465 l0 -140 -185 0 -185 0 0 -490
0 -490 185 0 185 0 0 -140 0 -140 -515 0 -515 0 0 140 0 140 185 0 185 0 0
490 0 490 -185 0 -185 0 0 140 0 140 515 0 515 0 0 -140z"/>
</g>
</svg>
